# This file uses meters as units for non-parametric coordinates.

mtllib simons_supersticky_superglue.mtl
g default
v -12.490510 104.406420 10.649845
v -13.632199 103.007800 9.942341
v -13.632199 101.279131 9.942341
v -12.490510 99.880526 10.649845
v -10.643171 99.346346 11.794640
v -8.795832 99.880526 12.939435
v -7.654143 101.279131 13.646939
v -7.654143 103.007800 13.646939
v -8.795832 104.406420 12.939435
v -10.643171 104.940585 11.794640
v -7.884376 102.143466 7.342814
v -11.813284 103.576830 11.069522
v -12.536434 102.690936 10.621386
v -12.536434 101.595995 10.621386
v -11.813284 100.710101 11.069522
v -10.643171 100.371768 11.794640
v -9.473059 100.710101 12.519758
v -8.749909 101.595995 12.967894
v -8.749909 102.690936 12.967894
v -9.473059 103.576830 12.519758
v -10.643171 103.915179 11.794640
v -14.843899 103.170672 17.156538
v -15.235941 102.535830 16.913590
v -15.235941 101.751116 16.913590
v -14.843899 101.116274 17.156538
v -14.209546 100.873797 17.549647
v -13.575192 101.116274 17.942755
v -13.183151 101.751116 18.185703
v -13.183151 102.535830 18.185703
v -13.575192 103.170672 17.942755
v -14.209546 103.413134 17.549647
v -10.616784 104.970156 6.598299
v -9.911449 104.329928 6.086638
v -12.045610 103.222811 5.721567
v -11.044781 102.926714 5.384313
v -12.045610 101.064135 5.721568
v -11.052220 101.356692 5.379704
v -10.616784 99.316775 6.598300
v -9.915658 99.948412 6.084030
v -8.307511 98.648989 8.025621
v -7.884376 99.359454 7.342815
v -6.001582 99.316775 9.458338
v -5.857304 99.957018 8.598990
v -4.580557 101.064135 10.347657
v -4.723972 101.360217 9.301315
v -4.580558 103.222811 10.347657
v -4.716533 102.930239 9.305925
v -6.001583 104.970156 9.458338
v -5.853095 104.338519 8.601599
v -8.307511 105.637957 8.025621
v -7.884376 104.927477 7.342814
v -14.162827 102.143481 17.598394
v -0.812981 104.117648 -14.200145
v 2.452684 101.563174 -19.254183
v 1.871327 101.687747 -19.327802
v 1.426577 101.993548 -18.943984
v 0.847887 99.680926 -16.187209
v 0.355457 99.948458 -16.408827
v 0.102751 100.576113 -16.365285
v -1.609507 100.553469 -12.894933
v -1.490577 99.938540 -12.694126
v -1.041597 99.680926 -12.405409
v -2.840884 103.983050 -8.707313
v -3.174943 103.775881 -9.179491
v -3.010962 103.392214 -9.936931
v -3.466338 106.456500 -7.877396
v -3.816622 106.261645 -8.334216
v -3.745626 105.838549 -8.912618
v -2.035862 108.591601 -10.799103
v -2.501937 108.270525 -11.067845
v -2.653032 107.578600 -11.238072
v 0.468698 108.533190 -15.572567
v -0.028580 108.266711 -15.787101
v -0.303244 107.623492 -15.713818
v 2.130724 106.410220 -18.732307
v 1.566142 106.224429 -18.834115
v 1.155031 105.790011 -18.508952
v 2.947404 104.027972 -20.179227
v 2.319693 103.925692 -20.187091
v 1.793868 103.774157 -19.664897
v -10.862835 102.816302 5.758598
v -10.377572 103.673739 6.059319
v -10.720706 103.422579 5.846679
v -10.377112 100.243624 6.059564
v -10.862825 101.099612 5.758581
v -10.720560 100.494341 5.846732
v -8.001462 100.243624 7.531753
v -8.001480 103.673739 7.531783
v 5.074162 99.680926 -13.568189
v 6.919412 101.666811 -16.545842
v 2.856580 99.680926 -9.989710
v 0.156007 106.455355 -5.631835
v 0.699964 103.980196 -6.509610
v 1.861359 108.590609 -8.383737
v 4.693741 108.533205 -12.954309
v 6.568293 106.716540 -15.979245
v 7.550333 104.533724 -17.563950
v 8.260200 104.117648 -8.577499
v 11.332689 101.563174 -13.751248
v 11.657353 101.687747 -13.263406
v 11.511583 101.993548 -12.694311
v 9.300437 99.680926 -10.949168
v 9.718055 99.948458 -10.606829
v 9.791532 100.576113 -10.361152
v 7.445881 100.553469 -7.283313
v 7.213126 99.938540 -7.300446
v 6.754758 99.680926 -7.574011
v 4.243894 103.983050 -4.316879
v 4.815406 103.775881 -4.227876
v 5.420714 103.392214 -4.711826
v 3.779065 106.456500 -3.387423
v 4.344045 106.261645 -3.277055
v 4.830408 105.838549 -3.598054
v 5.758814 108.591601 -5.968746
v 6.206903 108.270525 -5.670981
v 6.426588 107.578600 -5.611436
v 8.918785 108.533190 -10.336052
v 9.332218 108.266711 -9.986219
v 9.388834 107.623492 -9.707642
v 11.008639 106.410220 -13.230667
v 11.351081 106.224429 -12.770394
v 11.242865 105.790011 -12.257526
v 11.940889 104.027972 -14.605969
v 12.227299 103.925692 -14.047352
v 11.993696 103.774157 -13.344069
v -5.140121 102.816302 9.304961
v -5.625388 103.673739 9.004246
v -5.282254 103.422579 9.216886
v -5.625812 100.243624 9.003943
v -5.140111 101.099612 9.304945
v -5.282366 100.494341 9.216778
vt 0.220046 0.869846
vt 0.099607 0.869846
vt 0.099607 0.957478
vt 0.220046 0.957478
vt 0.113440 0.869846
vt 0.113440 0.957478
vt 0.207148 0.869846
vt 0.207148 0.957478
vt 0.126323 0.869846
vt 0.126324 0.957478
vt 0.152041 0.869846
vt 0.166729 0.869846
vt 0.166729 0.957478
vt 0.152041 0.957478
vt 0.181418 0.869846
vt 0.181417 0.957478
vt 0.138655 0.869846
vt 0.138655 0.957478
vt 0.194808 0.869846
vt 0.194808 0.957478
vt 0.166107 0.808876
vt 0.423319 0.808876
vt 0.133776 0.749584
vt 0.166107 0.749584
vt 0.166107 0.822703
vt 0.133776 0.822703
vt 0.390682 0.808876
vt 0.390682 0.749584
vt 0.193891 0.808876
vt 0.193891 0.749584
vt 0.193891 0.822703
vt 0.390682 0.822704
vt 0.362767 0.808876
vt 0.362766 0.749584
vt 0.362767 0.822703
vt 0.311089 0.808876
vt 0.278399 0.808876
vt 0.278399 0.749584
vt 0.311089 0.749584
vt 0.311089 0.822703
vt 0.278399 0.822703
vt 0.245735 0.808876
vt 0.245736 0.749584
vt 0.338740 0.808876
vt 0.338740 0.749584
vt 0.338740 0.822703
vt 0.245736 0.822703
vt 0.218000 0.808876
vt 0.218000 0.749584
vt 0.218000 0.822703
vt 0.425404 0.937314
vt 0.407289 0.954711
vt 0.403185 0.938014
vt 0.414659 0.926995
vt 0.384899 0.954711
vt 0.389003 0.938014
vt 0.432322 0.909166
vt 0.419041 0.909166
vt 0.366784 0.937314
vt 0.377528 0.926995
vt 0.425404 0.881016
vt 0.414659 0.891336
vt 0.359865 0.909166
vt 0.373146 0.909166
vt 0.407289 0.863620
vt 0.403185 0.880317
vt 0.366784 0.881016
vt 0.377528 0.891336
vt 0.384899 0.863620
vt 0.389003 0.880317
vt 0.304517 0.863837
vt 0.322691 0.881106
vt 0.294371 0.911994
vt 0.330430 0.911994
vt 0.284181 0.863723
vt 0.322802 0.942945
vt 0.265940 0.881042
vt 0.304562 0.960264
vt 0.258312 0.911994
vt 0.284227 0.960150
vt 0.266052 0.942881
vt 0.405307 0.893625
vt 0.411281 0.901848
vt 0.394794 0.906930
vt 0.411281 0.912012
vt 0.395641 0.890484
vt 0.405307 0.920235
vt 0.385974 0.893625
vt 0.395641 0.923376
vt 0.380000 0.901848
vt 0.385974 0.920235
vt 0.380000 0.912012
vt 0.423319 0.749584
vt 0.233898 0.869846
vt 0.233898 0.957478
vt 0.423319 0.822703
vt 0.133776 0.808876
vt 0.070947 0.501998
vt 0.062739 0.499773
vt 0.062610 0.553776
vt 0.070651 0.552363
vt 0.523440 0.495796
vt 0.516382 0.494860
vt 0.511292 0.550366
vt 0.518330 0.550249
vt 0.089481 0.464218
vt 0.117255 0.532370
vt 0.107769 0.594893
vt 0.139757 0.611339
vt 0.162510 0.577966
vt 0.163097 0.512035
vt 0.139123 0.470924
vt 0.112764 0.453675
vt 0.077792 0.823426
vt 0.100239 0.823426
vt 0.450828 0.550366
vt 0.450828 0.822142
vt 0.487677 0.822142
vt 0.318778 0.445516
vt 0.310869 0.447322
vt 0.309641 0.480489
vt 0.317603 0.482045
vt 0.085482 0.456889
vt 0.114745 0.444250
vt 0.526724 0.452555
vt 0.519697 0.449342
vt 0.069877 0.823426
vt 0.493004 0.822142
vt 0.214426 0.461161
vt 0.207477 0.458220
vt 0.227059 0.676695
vt 0.232326 0.676695
vt 0.112786 0.604442
vt 0.108167 0.823426
vt 0.145290 0.618257
vt 0.335943 0.707032
vt 0.342635 0.704468
vt 0.341607 0.673447
vt 0.334844 0.675856
vt 0.171557 0.578818
vt 0.332972 0.647103
vt 0.325665 0.649203
vt 0.171508 0.509329
vt 0.323022 0.569038
vt 0.315196 0.570160
vt 0.144803 0.464478
vt 0.319022 0.517198
vt 0.311173 0.517321
vt 0.450828 0.448674
vt 0.450828 0.494860
vt 0.394891 0.704768
vt 0.395048 0.673732
vt 0.395182 0.647426
vt 0.395577 0.569406
vt 0.395828 0.519877
vt 0.395980 0.489939
vt 0.396195 0.447444
vt 0.268792 0.676695
vt 0.268792 0.461199
vt 0.070946 0.501997
vt 0.070650 0.552363
vt 0.062610 0.553776
vt 0.062739 0.499772
vt 0.523439 0.495797
vt 0.518329 0.550249
vt 0.511292 0.550366
vt 0.516382 0.494860
vt 0.089481 0.464217
vt 0.117255 0.532369
vt 0.107770 0.594893
vt 0.139757 0.611338
vt 0.162510 0.577966
vt 0.163097 0.512034
vt 0.139123 0.470923
vt 0.112764 0.453675
vt 0.100239 0.823427
vt 0.077792 0.823427
vt 0.487677 0.822141
vt 0.450828 0.822141
vt 0.450828 0.550366
vt 0.318778 0.445517
vt 0.317604 0.482046
vt 0.309641 0.480490
vt 0.310869 0.447323
vt 0.085482 0.456888
vt 0.114745 0.444249
vt 0.526723 0.452556
vt 0.519697 0.449344
vt 0.069877 0.823426
vt 0.493004 0.822141
vt 0.214426 0.461161
vt 0.232326 0.676694
vt 0.227060 0.676694
vt 0.207478 0.458221
vt 0.112786 0.604441
vt 0.108167 0.823427
vt 0.145290 0.618256
vt 0.335944 0.707030
vt 0.334846 0.675855
vt 0.341609 0.673446
vt 0.342637 0.704466
vt 0.171558 0.578818
vt 0.325666 0.649203
vt 0.332973 0.647103
vt 0.171508 0.509328
vt 0.315197 0.570161
vt 0.323023 0.569038
vt 0.144803 0.464477
vt 0.311174 0.517321
vt 0.319023 0.517199
vt 0.450828 0.448674
vt 0.450828 0.494860
vt 0.394893 0.704767
vt 0.395049 0.673730
vt 0.395183 0.647425
vt 0.395577 0.569405
vt 0.395828 0.519877
vt 0.395979 0.489939
vt 0.396194 0.447444
vt 0.268792 0.676694
vt 0.268792 0.461199
vn -0.526755 -0.000001 0.850017
vn -0.526755 0.000000 0.850017
vn -0.526755 0.000000 0.850017
vn -0.526755 -0.000001 0.850017
vn -0.526755 0.000001 0.850017
vn -0.526755 0.000001 0.850017
vn -0.526755 0.000001 0.850017
vn -0.526755 0.000000 0.850017
vn -0.526755 -0.000001 0.850017
vn -0.526755 -0.000001 0.850017
vn -0.526755 -0.000000 0.850017
vn -0.526755 -0.000001 0.850017
vn -0.526755 0.000000 0.850017
vn -0.526755 0.000000 0.850017
vn -0.526755 -0.000001 0.850017
vn -0.526755 -0.000001 0.850017
vn -0.526755 0.000001 0.850017
vn -0.526755 0.000002 0.850017
vn -0.526755 0.000001 0.850017
vn -0.526755 0.000001 0.850017
vn -0.501804 0.843576 -0.191239
vn -0.862305 0.349014 -0.366906
vn -0.858066 0.361263 -0.364981
vn -0.489153 0.852389 -0.184832
vn -0.862305 -0.349016 -0.366904
vn -0.858067 -0.361264 -0.364979
vn -0.501801 -0.843578 -0.191236
vn -0.489151 -0.852390 -0.184830
vn -0.041905 -0.996831 0.067622
vn -0.041905 -0.996831 0.067622
vn 0.394583 -0.843579 0.364253
vn 0.383216 -0.852390 0.355775
vn 0.712339 -0.349016 0.608902
vn 0.708729 -0.361265 0.605963
vn 0.712340 0.349014 0.608901
vn 0.708730 0.361263 0.605962
vn 0.394586 0.843576 0.364254
vn 0.383219 0.852389 0.355776
vn -0.041905 0.996831 0.067622
vn -0.041905 0.996831 0.067622
vn 0.049360 0.657141 -0.752150
vn 0.042812 0.652975 -0.756169
vn -0.228411 0.294668 -0.927901
vn -0.225770 0.301668 -0.926296
vn 0.348966 0.748177 -0.564317
vn 0.348852 0.748176 -0.564389
vn -0.231975 -0.293589 -0.927358
vn -0.229196 -0.301257 -0.925588
vn 0.040151 -0.656077 -0.753625
vn 0.046721 -0.660185 -0.749648
vn 0.350154 -0.748178 -0.563580
vn 0.350038 -0.748179 -0.563650
vn 0.658100 -0.652973 -0.374874
vn 0.651586 -0.657140 -0.378950
vn 0.932593 -0.294669 -0.208426
vn 0.929982 -0.301665 -0.210076
vn 0.933693 0.293588 -0.204999
vn 0.930869 0.301261 -0.206700
vn 0.657001 0.656076 -0.371368
vn 0.650516 0.660184 -0.375481
vn -0.497355 0.860510 -0.110273
vn -0.871633 0.381111 -0.308238
vn -0.867214 0.392830 -0.305981
vn -0.486555 0.867399 -0.104320
vn -0.871633 -0.381112 -0.308237
vn -0.867213 -0.392833 -0.305979
vn -0.497351 -0.860513 -0.110270
vn -0.486551 -0.867402 -0.104317
vn -0.081838 -0.987858 0.132060
vn -0.081838 -0.987858 0.132060
vn 0.320097 -0.860513 0.396302
vn 0.309960 -0.867402 0.389280
vn 0.663954 -0.381112 0.643365
vn 0.659965 -0.392833 0.640413
vn 0.663955 0.381111 0.643365
vn 0.659967 0.392830 0.640413
vn 0.320102 0.860510 0.396304
vn 0.309964 0.867399 0.389282
vn -0.081838 0.987858 0.132060
vn -0.081838 0.987858 0.132060
vn 0.526755 0.000000 -0.850017
vn 0.526755 0.000000 -0.850017
vn 0.526755 -0.000000 -0.850017
vn 0.526755 0.000000 -0.850017
vn 0.526755 -0.000000 -0.850017
vn 0.526755 -0.000000 -0.850017
vn 0.526755 -0.000001 -0.850017
vn 0.526755 -0.000001 -0.850017
vn 0.526755 0.000000 -0.850017
vn 0.526755 -0.000000 -0.850017
vn 0.526755 -0.000000 -0.850017
vn -0.535888 0.007848 0.844253
vn -0.535888 0.007848 0.844253
vn -0.535888 0.007848 0.844253
vn -0.537945 0.000000 0.842980
vn -0.537945 0.000000 0.842980
vn -0.537945 0.000000 0.842980
vn -0.535888 -0.007852 0.844253
vn -0.535888 -0.007852 0.844253
vn -0.535888 -0.007852 0.844253
vn -0.530305 -0.013034 0.847706
vn -0.530306 -0.013034 0.847707
vn -0.530305 -0.013034 0.847706
vn -0.522980 -0.013481 0.852238
vn -0.522980 -0.013481 0.852238
vn -0.522980 -0.013481 0.852238
vn -0.516678 -0.008567 0.856137
vn -0.516679 -0.008567 0.856137
vn -0.516678 -0.008567 0.856137
vn -0.514176 0.000000 0.857685
vn -0.514176 0.000000 0.857685
vn -0.514176 0.000000 0.857685
vn -0.516678 0.008571 0.856137
vn -0.516678 0.008571 0.856137
vn -0.516678 0.008571 0.856137
vn -0.522980 0.013474 0.852238
vn -0.522980 0.013474 0.852238
vn -0.522980 0.013474 0.852238
vn -0.530305 0.013040 0.847707
vn -0.530305 0.013040 0.847707
vn -0.530305 0.013040 0.847707
vn -0.883393 -0.072451 -0.462998
vn -0.814574 -0.309329 -0.490699
vn -0.860659 -0.287263 -0.420412
vn -0.892913 -0.079914 -0.443080
vn -0.276076 -0.878611 -0.389647
vn 0.100172 -0.965421 -0.240683
vn -0.066704 -0.997724 -0.009865
vn -0.430420 -0.881362 -0.194783
vn -0.862357 -0.066808 -0.501874
vn -0.892380 -0.020272 -0.450830
vn -0.895220 0.017961 -0.445262
vn -0.935220 -0.036198 -0.352212
vn -0.897393 0.050189 -0.438369
vn -0.878098 0.063757 -0.474214
vn -0.865978 0.042608 -0.498264
vn -0.847149 -0.000807 -0.531355
vn -0.894665 -0.054824 -0.443362
vn -0.893510 0.069272 -0.443669
vn -0.011369 -0.999767 0.018346
vn -0.014374 -0.999628 0.023195
vn -0.064781 -0.997897 -0.002166
vn 0.343178 -0.701422 -0.624689
vn -0.068755 -0.670798 -0.738446
vn 0.007294 0.081204 -0.996671
vn 0.456461 0.103977 -0.883647
vn -0.730421 -0.228074 -0.643792
vn -0.712900 0.044802 -0.699833
vn -0.861984 -0.283956 -0.419943
vn -0.439661 -0.876948 -0.194063
vn -0.078246 0.996760 -0.018634
vn -0.412232 0.891288 -0.188867
vn -0.412232 0.891288 -0.188867
vn -0.058304 0.998262 -0.008569
vn -0.846370 0.334972 -0.414068
vn -0.846370 0.334972 -0.414068
vn -0.964056 -0.265539 -0.009204
vn -0.967909 0.133875 -0.212671
vn -0.654641 -0.386683 0.649555
vn -0.511913 -0.386782 0.767036
vn -0.502308 0.470551 0.725444
vn -0.809512 0.311631 0.497571
vn -0.877889 0.284076 -0.385501
vn -0.156603 0.975571 0.154069
vn -0.540536 0.840615 -0.034443
vn -0.814525 0.290346 -0.502242
vn 0.070592 0.970336 -0.231223
vn -0.311980 0.859640 -0.404583
vn -0.746545 0.225511 -0.625952
vn 0.258576 0.769888 -0.583448
vn -0.108669 0.678363 -0.726646
vn 0.379483 -0.700223 -0.604715
vn 0.135710 -0.967663 -0.212629
vn -0.486528 -0.385521 0.784005
vn -0.471077 0.448050 0.759827
vn -0.117559 0.974733 0.189937
vn 0.110252 0.973432 -0.200685
vn 0.292034 0.782014 -0.550609
vn 0.488080 0.156205 -0.858707
vn -0.009464 0.999827 0.016037
vn -0.009464 0.999827 0.016037
vn 0.807777 -0.072452 0.585019
vn 0.794177 -0.079914 0.602409
vn 0.759522 -0.287265 0.583614
vn 0.801954 -0.309330 0.511063
vn 0.471800 -0.878611 0.073810
vn 0.365991 -0.881361 0.298752
vn 0.038521 -0.997724 0.055343
vn 0.170950 -0.965421 -0.196822
vn 0.833228 -0.066808 0.548878
vn 0.800879 -0.020272 0.598482
vn 0.797158 0.017961 0.603504
vn 0.731634 -0.036197 0.680736
vn 0.791952 0.050189 0.608517
vn 0.815464 0.063757 0.575285
vn 0.831607 0.042608 0.553728
vn 0.852860 -0.000807 0.522139
vn 0.794970 0.069272 0.602681
vn 0.795209 -0.054824 0.603852
vn 0.030771 -0.997897 0.057048
vn -0.014374 -0.999628 0.023195
vn -0.011369 -0.999767 0.018346
vn 0.406676 -0.701422 -0.585339
vn 0.588156 0.103977 -0.802036
vn 0.889275 0.081205 -0.450106
vn 0.691878 -0.670799 -0.267082
vn 0.901596 -0.228075 0.367567
vn 0.943984 0.044802 0.326937
vn 0.759691 -0.283958 0.585010
vn 0.369459 -0.876948 0.307348
vn 0.051511 0.996760 0.061777
vn 0.033623 0.998262 0.048398
vn 0.352600 0.891287 0.285099
vn 0.352600 0.891287 0.285099
vn 0.747483 0.334970 0.573641
vn 0.747483 0.334970 0.573641
vn 0.621223 0.133876 0.772114
vn 0.437307 -0.265538 0.859216
vn -0.290327 -0.386683 0.875321
vn -0.085299 0.311632 0.946366
vn -0.426080 0.470551 0.772683
vn -0.459052 -0.386782 0.799794
vn 0.735928 0.284077 0.614581
vn 0.271414 0.840615 0.468723
vn -0.068272 0.975571 0.208808
vn 0.812270 0.290347 0.505882
vn 0.501156 0.859639 0.099318
vn 0.175642 0.970337 -0.166123
vn 0.892797 0.225511 0.389947
vn 0.699079 0.678362 -0.226085
vn 0.407396 0.769888 -0.491224
vn 0.372631 -0.700223 -0.608961
vn 0.130011 -0.967663 -0.216161
vn -0.485545 -0.385521 0.784614
vn -0.470769 0.448050 0.760018
vn -0.117768 0.974733 0.189807
vn 0.130644 0.973432 -0.188048
vn 0.363098 0.782014 -0.506570
vn 0.551749 0.156205 -0.819251
vn -0.010149 0.999827 0.015612
vn -0.010149 0.999827 0.015612
s 1
g pCylinder37
usemtl initialShadingGroup
f 1/51/1 2/52/2 13/53/3 12/54/4
f 2/52/2 3/55/5 14/56/6 13/53/3
f 3/55/5 4/59/7 15/60/8 14/56/6
f 4/59/7 5/63/9 16/64/10 15/60/8
f 5/63/9 6/67/11 17/68/12 16/64/10
f 6/67/11 7/69/13 18/70/14 17/68/12
f 7/69/13 8/65/15 19/66/16 18/70/14
f 8/65/15 9/61/17 20/62/18 19/66/16
f 9/61/17 10/57/19 21/58/20 20/62/18
f 10/57/19 1/51/1 12/54/4 21/58/20
s 2
f 12/15/21 13/19/22 23/20/23 22/16/24
f 13/19/22 14/7/25 24/8/26 23/20/23
f 14/7/25 15/1/27 25/4/28 24/8/26
f 15/1/27 16/94/29 26/95/30 25/4/28
f 16/2/29 17/5/31 27/6/32 26/3/30
f 17/5/31 18/9/33 28/10/34 27/6/32
f 18/9/33 19/17/35 29/18/36 28/10/34
f 19/17/35 20/11/37 30/14/38 29/18/36
f 20/11/37 21/12/39 31/13/40 30/14/38
f 21/12/39 12/15/21 22/16/24 31/13/40
s 3
f 32/42/41 33/47/42 35/50/43 34/48/44
f 33/47/42 32/42/41 50/37/45 51/41/46
f 34/48/44 35/50/43 37/31/47 36/29/48
f 36/29/48 37/31/47 39/25/49 38/21/50
f 38/21/50 39/25/49 41/26/51 40/97/52
f 40/22/52 41/96/51 43/32/53 42/27/54
f 42/27/54 43/32/53 45/35/55 44/33/56
f 44/33/56 45/35/55 47/46/57 46/44/58
f 46/44/58 47/46/57 49/40/59 48/36/60
f 48/36/60 49/40/59 51/41/46 50/37/45
s 4
f 32/42/61 34/48/62 2/49/63 1/43/64
f 34/48/62 36/29/65 3/30/66 2/49/63
f 36/29/65 38/21/67 4/24/68 3/30/66
f 38/21/67 40/97/69 5/23/70 4/24/68
f 40/22/69 42/27/71 6/28/72 5/93/70
f 42/27/71 44/33/73 7/34/74 6/28/72
f 44/33/73 46/44/75 8/45/76 7/34/74
f 46/44/75 48/36/77 9/39/78 8/45/76
f 48/36/77 50/37/79 10/38/80 9/39/78
f 50/37/79 32/42/61 1/43/64 10/38/80
s 5
f 35/71/81 33/72/82 11/73/83
f 37/75/84 35/71/81 11/73/83
f 39/77/85 37/75/84 11/73/83
f 41/79/86 39/77/85 11/73/83
f 43/81/87 41/79/86 11/73/83
f 45/80/88 43/81/87 11/73/83
f 47/78/89 45/80/88 11/73/83
f 49/76/90 47/78/89 11/73/83
f 51/74/91 49/76/90 11/73/83
f 33/72/82 51/74/91 11/73/83
s off
f 22/82/92 23/83/93 52/84/94
f 23/83/95 24/85/96 52/84/97
f 24/85/98 25/87/99 52/84/100
f 25/87/101 26/89/102 52/84/103
f 26/89/104 27/91/105 52/84/106
f 27/91/107 28/92/108 52/84/109
f 28/92/110 29/90/111 52/84/112
f 29/90/113 30/88/114 52/84/115
f 30/88/116 31/86/117 52/84/118
f 31/86/119 22/82/120 52/84/121
s 6
f 59/98/122 58/99/123 61/100/124 60/101/125
s 7
f 58/102/126 57/103/127 62/104/128 61/105/129
s 6
f 56/106/130 59/98/122 53/107/131
f 59/98/122 60/101/125 53/107/131
f 60/101/125 65/108/132 53/107/131
f 65/108/132 68/109/133 53/107/131
f 68/109/133 71/110/134 53/107/131
f 71/110/134 74/111/135 53/107/131
f 74/111/135 77/112/136 53/107/131
f 77/112/136 80/113/137 53/107/131
f 80/113/137 56/106/130 53/107/131
f 65/108/132 60/101/125 85/114/138 81/115/139
s 7
f 62/104/128 91/116/140 87/117/141 84/118/142
f 54/119/143 55/120/144 79/121/145 78/122/146
s 6
f 55/123/147 56/106/130 80/113/137 79/124/148
f 56/106/130 55/123/147 58/99/123 59/98/122
s 7
f 55/125/144 54/126/143 57/103/127 58/102/126
s 6
f 60/101/125 61/100/124 86/127/149 85/114/138
s 7
f 61/105/129 62/104/128 84/118/142 86/128/150
s 8
f 63/129/151 64/130/152 83/131/153 82/132/154
s 6
f 64/133/155 65/108/132 81/115/139 83/134/156
f 65/108/132 64/133/157 67/135/158 68/109/133
s 7
f 64/136/159 63/137/160 66/138/161 67/139/162
s 6
f 68/109/133 67/135/158 70/140/163 71/110/134
s 7
f 67/139/162 66/138/161 69/141/164 70/142/165
s 6
f 71/110/134 70/140/163 73/143/166 74/111/135
s 7
f 70/142/165 69/141/164 72/144/167 73/145/168
s 6
f 74/111/135 73/143/166 76/146/169 77/112/136
s 7
f 73/145/168 72/144/167 75/147/170 76/148/171
s 6
f 77/112/136 76/146/169 79/124/148 80/113/137
s 7
f 76/148/171 75/147/170 78/122/146 79/121/145
f 90/149/172 89/150/173 57/103/127 54/126/143
f 89/150/173 91/116/140 62/104/128 57/103/127
f 93/151/174 92/152/175 66/138/161 63/137/160
f 92/152/175 94/153/176 69/141/164 66/138/161
f 94/153/176 95/154/177 72/144/167 69/141/164
f 95/154/177 96/155/178 75/147/170 72/144/167
f 96/155/178 97/156/179 78/122/146 75/147/170
f 97/156/179 90/157/172 54/119/143 78/122/146
s 8
f 88/158/180 93/159/181 63/129/151 82/132/154
s 10
f 104/160/182 105/161/183 106/162/184 103/163/185
s 11
f 103/164/186 106/165/187 107/166/188 102/167/189
s 10
f 101/168/190 98/169/191 104/160/182
f 104/160/182 98/169/191 105/161/183
f 105/161/183 98/169/191 110/170/192
f 110/170/192 98/169/191 113/171/193
f 113/171/193 98/169/191 116/172/194
f 116/172/194 98/169/191 119/173/195
f 119/173/195 98/169/191 122/174/196
f 122/174/196 98/169/191 125/175/197
f 125/175/197 98/169/191 101/168/190
f 110/170/192 126/176/198 130/177/199 105/161/183
s 11
f 107/166/188 129/178/200 87/179/201 91/180/202
f 99/181/203 123/182/204 124/183/205 100/184/206
s 10
f 100/185/207 124/186/208 125/175/197 101/168/190
f 101/168/190 104/160/182 103/163/185 100/185/207
s 11
f 100/187/206 103/164/186 102/167/189 99/188/203
s 10
f 105/161/183 130/177/199 131/189/209 106/162/184
s 11
f 106/165/187 131/190/210 129/178/200 107/166/188
s 14
f 108/191/211 127/192/212 128/193/213 109/194/214
s 10
f 109/195/215 128/196/216 126/176/198 110/170/192
f 110/170/192 113/171/193 112/197/217 109/195/218
s 11
f 109/198/219 112/199/220 111/200/221 108/201/222
s 10
f 113/171/193 116/172/194 115/202/223 112/197/217
s 11
f 112/199/220 115/203/224 114/204/225 111/200/221
s 10
f 116/172/194 119/173/195 118/205/226 115/202/223
s 11
f 115/203/224 118/206/227 117/207/228 114/204/225
s 10
f 119/173/195 122/174/196 121/208/229 118/205/226
s 11
f 118/206/227 121/209/230 120/210/231 117/207/228
s 10
f 122/174/196 125/175/197 124/186/208 121/208/229
s 11
f 121/209/230 124/183/205 123/182/204 120/210/231
f 90/211/232 99/188/203 102/167/189 89/212/233
f 89/212/233 102/167/189 107/166/188 91/180/202
f 93/213/234 108/201/222 111/200/221 92/214/235
f 92/214/235 111/200/221 114/204/225 94/215/236
f 94/215/236 114/204/225 117/207/228 95/216/237
f 95/216/237 117/207/228 120/210/231 96/217/238
f 96/217/238 120/210/231 123/182/204 97/218/239
f 97/218/239 123/182/204 99/181/203 90/219/232
s 14
f 88/220/240 127/192/212 108/191/211 93/221/241
