# This file uses meters as units for non-parametric coordinates.

mtllib Table_corner.mtl
g default
v 50.000000 99.114299 -46.694601
v 50.000000 96.694601 -49.114299
v 50.000000 93.389201 -50.000000
v 50.000000 100.000000 -43.389201
v 46.694601 99.114299 -50.000000
v 49.114299 96.694601 -50.000000
v 43.389201 100.000000 -50.000000
v 49.027100 96.694601 -49.027100
v 47.529399 99.114299 -47.529399
v 45.483601 100.000000 -45.483601
v 50.000000 119.892704 50.000000
v 50.000000 100.000000 36.776999
v -50.000000 119.892704 50.000000
v -50.000000 0.000000 50.000000
v 50.000000 0.000000 50.000000
v -36.776999 100.000000 -50.000000
v -50.000000 119.892704 -50.000000
v -50.000000 0.000000 -50.000000
v 50.000000 0.000000 -50.000000
v 50.000000 116.587305 37.662700
v 50.000000 119.007003 40.082401
v 50.000000 119.892704 43.387800
v 50.000000 113.281906 36.776999
v -36.776999 113.281906 -50.000000
v -43.387800 119.892704 -50.000000
v -40.082401 119.007003 -50.000000
v -37.662700 116.587305 -50.000000
v -36.776999 119.892704 43.387800
v -40.082401 119.892704 42.502201
v -42.502201 119.892704 40.082401
v -43.387800 119.892704 36.776999
v -33.471599 119.007003 40.082401
v -36.776999 119.007003 39.196700
v -39.196700 119.007003 36.776999
v -40.082401 119.007003 33.471599
v -31.051800 116.587305 37.662700
v -34.357300 116.587305 36.776999
v -36.776999 116.587305 34.357300
v -37.662700 116.587305 31.051800
v -36.776999 113.281906 30.166101
v -35.891300 113.281906 33.471599
v -33.471599 113.281906 35.891300
v -30.166101 113.281906 36.776999
v -36.776999 100.000000 30.166101
v -35.891300 100.000000 33.471599
v -33.471599 100.000000 35.891300
v -30.166101 100.000000 36.776999
v 43.768200 100.000000 -48.410001
v 46.763900 99.114299 -49.112800
v 48.960301 96.694601 -49.623901
v 49.623901 96.694601 -48.960301
v 49.112800 99.114299 -46.763900
v 48.410001 100.000000 -43.768200
vt 0.903502 0.472139
vt 0.906768 0.474436
vt 0.903400 0.472596
vt 0.903807 0.471502
vt 0.900060 0.470583
vt 0.899810 0.471572
vt 0.901065 0.468785
vt 0.801746 0.500283
vt 0.917192 0.500278
vt 0.917192 0.638696
vt 0.801740 0.638696
vt 0.842858 0.795709
vt 0.843881 0.776559
vt 0.843881 0.791893
vt 0.840065 0.798502
vt 0.836249 0.799525
vt 0.828615 0.799525
vt 0.828615 0.661110
vt 0.936432 0.776559
vt 0.940248 0.775537
vt 0.943042 0.772743
vt 0.944064 0.768927
vt 0.944064 0.661110
vt 0.922616 0.880784
vt 0.922379 0.884748
vt 0.815802 0.751403
vt 0.815802 0.747555
vt 0.925808 0.883698
vt 0.925264 0.887653
vt 0.819841 0.755186
vt 0.815802 0.755186
vt 0.800500 0.751403
vt 0.800500 0.747555
vt 0.815802 0.654771
vt 0.923263 0.783799
vt 0.926141 0.783816
vt 0.800500 0.755186
vt 0.800500 0.654771
vt 0.903666 0.463673
vt 0.903841 0.467504
vt 0.902854 0.467763
vt 0.901837 0.464190
vt 0.904897 0.471085
vt 0.904441 0.471190
vt 0.898502 0.466245
vt 0.810635 0.371622
vt 0.902738 0.370743
vt 0.896478 0.469598
vt 0.895977 0.471432
vt 0.803078 0.379249
vt 0.806837 0.372650
vt 0.803043 0.471356
vt 0.804071 0.375441
vt 0.937991 0.903474
vt 0.818329 0.903474
vt 0.818329 0.895562
vt 0.922168 0.895562
vt 0.818329 0.891607
vt 0.918212 0.891607
vt 0.926123 0.894502
vt 0.818329 0.888711
vt 0.915317 0.888711
vt 0.922168 0.890547
vt 0.929019 0.891607
vt 0.919272 0.887652
vt 0.930079 0.887652
vt 0.930079 0.783813
vt 0.937991 0.783813
vt 0.800078 0.074751
vt 0.815345 0.097719
vt 0.800102 0.213173
vt 0.807712 0.074751
vt 0.907902 0.097719
vt 0.811528 0.075774
vt 0.911718 0.098741
vt 0.814322 0.078568
vt 0.914512 0.101535
vt 0.815345 0.082384
vt 0.915535 0.105352
vt 0.915535 0.213176
vt 0.819841 0.759138
vt 0.815802 0.759138
vt 0.819841 0.851408
vt 0.815802 0.851408
vt 0.800500 0.759138
vt 0.800500 0.851408
vt 0.798631 0.361008
vt 0.798631 0.222593
vt 0.914081 0.222593
vt 0.914081 0.361008
vt 0.819841 0.654771
vt 0.819841 0.747555
vt 0.819841 0.751403
vn 0.000045 1.000000 -0.000248
vn 0.017741 0.904426 -0.426262
vn 0.126685 0.905612 -0.404745
vn 0.000239 1.000000 -0.000595
vn 0.017741 0.904426 -0.426262
vn -0.148555 0.574564 -0.804865
vn 0.095120 0.606768 -0.789167
vn 0.126685 0.905612 -0.404745
vn -0.148555 0.574564 -0.804865
vn 0.642737 0.416881 -0.642728
vn 0.095120 0.606768 -0.789167
vn 0.789164 0.606772 -0.095117
vn 0.642737 0.416881 -0.642728
vn 0.804856 0.574584 0.148525
vn 0.404745 0.905612 -0.126684
vn 0.789164 0.606772 -0.095117
vn 0.804856 0.574584 0.148525
vn 0.426264 0.904425 -0.017739
vn 0.000595 1.000000 -0.000239
vn 0.404745 0.905612 -0.126684
vn 0.426264 0.904425 -0.017739
vn 0.000248 1.000000 -0.000045
vn 0.000000 0.000000 -1.000000
vn 0.000000 0.000000 -1.000000
vn 0.000000 0.000000 -1.000000
vn -1.000000 0.000000 0.000000
vn -1.000000 0.000000 0.000000
vn -1.000000 0.000000 0.000000
vn -1.000000 0.000000 0.000000
vn 0.000000 1.000000 0.000000
vn 0.000000 1.000000 0.000001
vn 0.000000 0.996501 -0.083582
vn 0.000851 0.999399 -0.034669
vn 1.000000 0.000000 0.000000
vn 1.000000 0.000000 0.000000
vn 1.000000 0.000000 0.000000
vn 0.000000 0.000000 -1.000000
vn 0.000000 0.000000 -1.000000
vn 0.000000 0.000000 -1.000000
vn 0.000045 1.000000 -0.000248
vn 0.000239 1.000000 -0.000595
vn 0.000000 1.000000 0.000000
vn 0.000000 1.000000 0.000000
vn 0.005906 0.999965 -0.005906
vn 0.000595 1.000000 -0.000239
vn 0.000000 1.000000 0.000000
vn 0.000000 1.000000 0.000000
vn 0.034669 0.999399 -0.000851
vn 0.083583 0.996501 0.000000
vn 0.000000 1.000000 0.000000
vn 0.829961 0.557768 -0.007729
vn 0.668946 0.638437 -0.380670
vn 0.865030 0.075701 -0.495977
vn 0.998132 0.060259 -0.010038
vn 0.668946 0.638437 -0.380670
vn 0.380669 0.638438 -0.668946
vn 0.495977 0.075701 -0.865030
vn 0.865030 0.075701 -0.495977
vn 0.380669 0.638438 -0.668946
vn 0.007729 0.557764 -0.829963
vn 0.010038 0.060259 -0.998132
vn 0.495977 0.075701 -0.865030
vn 0.000000 0.996501 -0.083582
vn 0.000000 0.868308 -0.496026
vn 0.005290 0.916463 -0.400084
vn 0.000851 0.999399 -0.034669
vn 0.000000 0.868308 -0.496026
vn 0.000000 0.502351 -0.864664
vn 0.007729 0.557764 -0.829963
vn 0.005290 0.916463 -0.400084
vn 0.000000 0.502351 -0.864664
vn 0.000000 0.053554 -0.998565
vn 0.010038 0.060259 -0.998132
vn 0.007729 0.557764 -0.829963
vn 0.010038 0.060259 -0.998132
vn 0.000000 0.053554 -0.998565
vn 0.000000 0.000000 -1.000000
vn 0.010610 0.000000 -0.999944
vn 0.998132 0.060259 -0.010038
vn 0.999944 0.000000 -0.010610
vn 1.000000 0.000000 0.000000
vn 0.998565 0.053555 0.000000
vn 0.829961 0.557768 -0.007729
vn 0.998132 0.060259 -0.010038
vn 0.998565 0.053555 0.000000
vn 0.864661 0.502356 0.000000
vn 0.034669 0.999399 -0.000851
vn 0.400086 0.916462 -0.005290
vn 0.496027 0.868307 0.000000
vn 0.083583 0.996501 0.000000
vn 0.400086 0.916462 -0.005290
vn 0.829961 0.557768 -0.007729
vn 0.864661 0.502356 0.000000
vn 0.496027 0.868307 0.000000
vn 0.005906 0.999965 -0.005906
vn 0.000000 1.000000 0.000000
vn 0.000000 1.000000 0.000000
vn 0.005906 0.999965 -0.005906
vn 0.000000 1.000000 0.000000
vn 0.000000 1.000000 0.000000
vn 0.005906 0.999965 -0.005906
vn 0.000000 1.000000 0.000000
vn 0.000000 1.000000 0.000000
vn 0.034669 0.999399 -0.000851
vn 0.059993 0.997438 -0.038954
vn 0.309227 0.932837 -0.184917
vn 0.400086 0.916462 -0.005290
vn 0.059993 0.997438 -0.038954
vn 0.038955 0.997438 -0.059993
vn 0.184919 0.932837 -0.309225
vn 0.309227 0.932837 -0.184917
vn 0.038955 0.997438 -0.059993
vn 0.000851 0.999399 -0.034669
vn 0.005290 0.916463 -0.400084
vn 0.184919 0.932837 -0.309225
vn 0.400086 0.916462 -0.005290
vn 0.309227 0.932837 -0.184917
vn 0.668946 0.638437 -0.380670
vn 0.829961 0.557768 -0.007729
vn 0.309227 0.932837 -0.184917
vn 0.184919 0.932837 -0.309225
vn 0.380669 0.638438 -0.668946
vn 0.668946 0.638437 -0.380670
vn 0.184919 0.932837 -0.309225
vn 0.005290 0.916463 -0.400084
vn 0.007729 0.557764 -0.829963
vn 0.380669 0.638438 -0.668946
vn 0.495977 0.075701 -0.865030
vn 0.010038 0.060259 -0.998132
vn 0.010610 0.000000 -0.999944
vn 0.499998 0.000000 -0.866026
vn 0.998132 0.060259 -0.010038
vn 0.865030 0.075701 -0.495977
vn 0.866026 0.000000 -0.499999
vn 0.999944 0.000000 -0.010610
vn 0.865030 0.075701 -0.495977
vn 0.495977 0.075701 -0.865030
vn 0.499998 0.000000 -0.866026
vn 0.866026 0.000000 -0.499999
vn 0.000851 0.999399 -0.034669
vn 0.038955 0.997438 -0.059993
vn 0.000000 1.000000 0.000000
vn 0.000000 1.000000 0.000000
vn 0.059993 0.997438 -0.038954
vn 0.034669 0.999399 -0.000851
vn 0.059993 0.997438 -0.038954
vn 0.000000 1.000000 0.000000
vn 0.038955 0.997438 -0.059993
vn 0.000000 0.000000 -1.000000
vn 0.000000 0.000000 -1.000000
vn 0.000000 0.000000 -1.000000
vn 0.000000 0.000000 -1.000000
vn 0.000000 0.000000 -1.000000
vn 0.000000 0.000000 -1.000000
vn 0.000013 0.000000 -1.000000
vn 0.000013 0.000000 -1.000000
vn 0.000013 0.000000 -1.000000
vn 0.000000 0.000000 1.000000
vn 0.000000 0.000000 1.000000
vn 0.000000 0.000000 1.000000
vn 0.000000 0.000000 1.000000
vn 1.000000 0.000000 0.000000
vn 1.000000 0.000000 0.000000
vn 1.000000 0.000000 0.000000
vn 1.000000 0.000000 0.000000
vn 1.000000 0.000000 0.000000
vn 1.000000 0.000000 0.000000
vn 1.000000 0.000000 0.000000
vn 1.000000 0.000000 0.000000
vn 1.000000 0.000000 0.000000
vn 1.000000 0.000000 0.000000
vn 1.000000 0.000000 0.000000
vn 1.000000 0.000000 0.000000
vn 0.000000 0.000000 -1.000000
vn 0.000000 0.000000 -1.000000
vn 0.000000 0.000000 -1.000000
vn 0.000000 0.000000 -1.000000
vn 0.000000 0.000000 -1.000000
vn 0.000000 0.000000 -1.000000
vn 1.000000 0.000000 0.000000
vn 1.000000 0.000000 0.000000
vn 1.000000 0.000000 0.000000
vn 1.000000 0.000000 0.000000
vn 1.000000 0.000000 0.000000
vn 1.000000 0.000000 0.000000
vn 1.000000 0.000000 0.000000
vn 1.000000 0.000000 0.000000
vn 1.000000 0.000000 0.000000
vn 1.000000 0.000000 0.000000
vn 1.000000 0.000000 0.000000
vn 1.000000 0.000000 0.000000
vn 1.000000 0.000000 0.000000
vn 1.000000 0.000000 0.000000
vn 1.000000 0.000000 0.000000
vn 0.000000 0.000000 -1.000000
vn 0.000000 0.000000 -1.000000
vn 0.000000 0.000000 -1.000000
vn 0.000000 0.000000 -1.000000
vn 0.000000 0.000000 -1.000000
vn 0.000000 0.000000 -1.000000
vn 0.000000 0.000000 -1.000000
vn 0.000000 0.000000 -1.000000
vn 0.000000 0.000000 -1.000000
vn 0.005906 0.999965 -0.005906
vn 0.285744 0.914714 -0.285743
vn 0.404745 0.905612 -0.126684
vn 0.000595 1.000000 -0.000239
vn 0.285744 0.914714 -0.285743
vn 0.537345 0.650029 -0.537328
vn 0.789164 0.606772 -0.095117
vn 0.404745 0.905612 -0.126684
vn 0.537345 0.650029 -0.537328
vn 0.642737 0.416881 -0.642728
vn 0.789164 0.606772 -0.095117
vn 0.095120 0.606768 -0.789167
vn 0.642737 0.416881 -0.642728
vn 0.537345 0.650029 -0.537328
vn 0.126685 0.905612 -0.404745
vn 0.095120 0.606768 -0.789167
vn 0.537345 0.650029 -0.537328
vn 0.285744 0.914714 -0.285743
vn 0.000239 1.000000 -0.000595
vn 0.126685 0.905612 -0.404745
vn 0.285744 0.914714 -0.285743
vn 0.005906 0.999965 -0.005906
vn 0.000000 1.000000 0.000000
vn 0.000595 1.000000 -0.000239
vn 0.000248 1.000000 -0.000045
vn 0.000000 1.000000 0.000000
vn 0.000000 1.000000 0.000000
vn 0.000239 1.000000 -0.000595
vn 0.005906 0.999965 -0.005906
s off
g pCube12
usemtl Table_Innercorner_initialShadingGroup
f 4/39/1 1/40/2 52/41/3 53/42/4
f 1/40/5 2/43/6 51/44/7 52/41/8
f 2/43/9 3/2/10 51/44/11
f 50/1/12 3/2/13 6/3/14
f 49/5/15 50/1/16 6/3/17 5/6/18
f 48/48/19 49/5/20 5/6/21 7/49/22
f 17/69/23 16/70/24 18/71/25
f 18/8/26 14/9/27 13/10/28 17/11/29
f 13/54/30 11/55/31 22/56/32 28/57/33
f 20/12/34 12/13/35 23/14/36
f 27/76/37 16/70/38 26/74/39
f 4/39/40 53/42/41 47/46/42 12/47/43
f 10/45/44 48/48/45 44/50/46
f 13/54/47 31/66/48 25/67/49 17/68/50
f 39/92/51 38/93/52 41/26/53 40/27/54
f 38/93/55 37/30/56 42/31/57 41/26/58
f 37/30/59 36/81/60 43/82/61 42/31/62
f 22/56/63 21/58/64 32/59/65 28/57/66
f 21/58/67 20/61/68 36/62/69 32/59/70
f 20/83/71 23/84/72 43/82/73 36/81/74
f 43/82/75 23/84/76 12/86/77 47/85/78
f 40/27/79 44/33/80 16/38/81 24/34/82
f 39/92/83 40/27/84 24/34/85 27/91/86
f 31/66/87 35/28/88 26/36/89 25/67/90
f 35/28/91 39/24/92 27/35/93 26/36/94
f 10/45/95 44/50/96 45/53/97
f 10/45/98 45/53/99 46/51/100
f 10/45/101 46/51/102 47/46/103
f 31/66/104 30/64/105 34/29/106 35/28/107
f 30/64/108 29/60/109 33/63/110 34/29/111
f 29/60/112 28/57/113 32/59/114 33/63/115
f 35/28/116 34/29/117 38/25/118 39/24/119
f 34/29/120 33/63/121 37/65/122 38/25/123
f 33/63/124 32/59/125 36/62/126 37/65/127
f 42/31/128 43/82/129 47/85/130 46/37/131
f 40/27/132 41/26/133 45/32/134 44/33/135
f 41/26/136 42/31/137 46/37/138 45/32/139
f 28/57/140 29/60/141 13/54/142
f 13/54/143 30/64/144 31/66/145
f 30/64/146 13/54/147 29/60/148
f 7/73/149 18/71/150 16/70/151
f 5/75/152 6/77/153 18/71/154
f 6/77/155 3/79/156 18/71/157
f 13/87/158 14/88/159 15/89/160 11/90/161
f 3/22/162 2/21/163 15/18/164
f 2/21/165 1/20/166 15/18/167
f 1/20/168 4/19/169 15/18/170
f 15/18/171 19/23/172 3/22/173
f 19/80/174 18/71/175 3/79/176
f 7/73/177 5/75/178 18/71/179
f 12/13/180 15/18/181 4/19/182
f 12/13/183 11/17/184 15/18/185
f 20/12/186 21/15/187 12/13/188
f 12/13/189 21/15/190 22/16/191
f 12/13/192 22/16/193 11/17/194
f 24/78/195 16/70/196 27/76/197
f 25/72/198 16/70/199 17/69/200
f 26/74/201 16/70/202 25/72/203
f 10/45/204 9/7/205 49/5/206 48/48/207
f 9/7/208 8/4/209 50/1/210 49/5/211
f 8/4/212 3/2/213 50/1/214
f 51/44/215 3/2/216 8/4/217
f 52/41/218 51/44/219 8/4/220 9/7/221
f 53/42/222 52/41/223 9/7/224 10/45/225
f 44/50/226 48/48/227 7/49/228 16/52/229
f 47/46/230 53/42/231 10/45/232
